<svg width="20" height="21" viewBox="0 0 20 21" fill="none" xmlns="http://www.w3.org/2000/svg">
<path d="M17.1564 9.94394L3.40636 3.06894C3.29859 3.01504 3.17754 2.99345 3.05778 3.00675C2.93803 3.02006 2.82467 3.0677 2.73136 3.14394C2.64225 3.21862 2.57574 3.31668 2.5393 3.42709C2.50287 3.5375 2.49795 3.65589 2.52511 3.76894L4.37511 10.5002L2.50011 17.2127C2.47463 17.3071 2.47165 17.4062 2.49143 17.5019C2.5112 17.5977 2.55317 17.6875 2.61396 17.7641C2.67475 17.8407 2.75267 17.902 2.84144 17.943C2.93022 17.984 3.02738 18.0036 3.12511 18.0002C3.22295 17.9996 3.31928 17.9761 3.40636 17.9314L17.1564 11.0564C17.2587 11.004 17.3447 10.9243 17.4046 10.8262C17.4646 10.728 17.4964 10.6152 17.4964 10.5002C17.4964 10.3852 17.4646 10.2724 17.4046 10.1742C17.3447 10.0761 17.2587 9.99639 17.1564 9.94394ZM4.09386 16.1939L5.47511 11.1252H11.2501V9.87519H5.47511L4.09386 4.80644L15.4751 10.5002L4.09386 16.1939Z" fill="#F4CFAB" stroke="#F4CFAB" stroke-width="0.5"/>
</svg>
