<svg width="97" height="27" viewBox="0 0 97 27" fill="none" xmlns="http://www.w3.org/2000/svg">
<rect x="0.758789" y="0.320068" width="95.6562" height="26.4059" rx="13.2029" fill="white"/>
<rect x="0.758789" y="0.320068" width="95.6562" height="26.4059" rx="13.2029" stroke="#E0E6ED" stroke-width="0.436267"/>
<path d="M38.8497 13.9048H37.8323V13.4498H38.8497V12.4069H39.3098V13.4498H40.3298V13.9048H39.3098V14.9427H38.8497V13.9048ZM42.1062 13.1891C42.4828 13.1891 42.7811 13.2888 43.0009 13.4882C43.2208 13.6876 43.3307 13.9594 43.3307 14.3036C43.3307 14.7024 43.2054 15.0143 42.9549 15.2392C42.7061 15.4625 42.3516 15.5741 41.8915 15.5741C41.474 15.5741 41.1459 15.5068 40.9073 15.3721V14.8276C41.0454 14.906 41.2039 14.9665 41.3828 15.0091C41.5617 15.0517 41.7279 15.073 41.8813 15.073C42.1522 15.073 42.3584 15.0126 42.4999 14.8916C42.6413 14.7706 42.7121 14.5933 42.7121 14.3599C42.7121 13.9134 42.4275 13.6901 41.8583 13.6901C41.7782 13.6901 41.6793 13.6986 41.5617 13.7157C41.4442 13.731 41.3411 13.7489 41.2524 13.7694L40.984 13.6109L41.1272 11.7857H43.0699V12.32H41.6563L41.572 13.2453C41.6316 13.2351 41.704 13.2232 41.7893 13.2095C41.8762 13.1959 41.9818 13.1891 42.1062 13.1891ZM47.832 15.5229H47.2287V13.7796C47.2287 13.5632 47.1878 13.4021 47.106 13.2965C47.0242 13.1891 46.8964 13.1354 46.7225 13.1354C46.4908 13.1354 46.3204 13.2112 46.2113 13.3629C46.1039 13.5129 46.0502 13.7634 46.0502 14.1145V15.5229H45.4495V12.6957H45.9199L46.0042 13.0664H46.0349C46.1133 12.9318 46.2266 12.8278 46.3749 12.7545C46.5249 12.6813 46.6893 12.6446 46.8682 12.6446C47.3028 12.6446 47.5908 12.7929 47.7323 13.0894H47.7732C47.8567 12.9497 47.9742 12.8406 48.1259 12.7622C48.2776 12.6838 48.4514 12.6446 48.6474 12.6446C48.9848 12.6446 49.2302 12.7298 49.3836 12.9002C49.5387 13.0707 49.6162 13.3305 49.6162 13.6799V15.5229H49.0155V13.7796C49.0155 13.5632 48.9737 13.4021 48.8902 13.2965C48.8084 13.1891 48.6806 13.1354 48.5068 13.1354C48.2733 13.1354 48.1021 13.2087 47.993 13.3553C47.8856 13.5001 47.832 13.7233 47.832 14.025V15.5229ZM52.9929 14.1042C52.9929 14.5661 52.8744 14.9265 52.6376 15.1855C52.4007 15.4446 52.0709 15.5741 51.6483 15.5741C51.3841 15.5741 51.1507 15.5144 50.9479 15.3951C50.7451 15.2758 50.5892 15.1046 50.4801 14.8813C50.371 14.6581 50.3165 14.3991 50.3165 14.1042C50.3165 13.6458 50.4341 13.2879 50.6693 13.0306C50.9044 12.7733 51.2359 12.6446 51.6636 12.6446C52.0726 12.6446 52.3964 12.7767 52.635 13.0408C52.8736 13.3033 52.9929 13.6577 52.9929 14.1042ZM50.9351 14.1042C50.9351 14.7569 51.1762 15.0833 51.6585 15.0833C52.1357 15.0833 52.3743 14.7569 52.3743 14.1042C52.3743 13.4584 52.134 13.1354 51.6534 13.1354C51.4012 13.1354 51.218 13.2189 51.1038 13.3859C50.9913 13.5529 50.9351 13.7924 50.9351 14.1042ZM55.1502 12.6446C55.2712 12.6446 55.3709 12.6531 55.4493 12.6702L55.3905 13.23C55.3053 13.2095 55.2167 13.1993 55.1247 13.1993C54.8844 13.1993 54.6892 13.2777 54.5393 13.4345C54.391 13.5913 54.3169 13.7949 54.3169 14.0454V15.5229H53.7162V12.6957H54.1865L54.2658 13.1942H54.2964C54.3902 13.0255 54.512 12.8917 54.662 12.7929C54.8136 12.694 54.9764 12.6446 55.1502 12.6446ZM57.2411 15.5741C56.8014 15.5741 56.4572 15.4463 56.2084 15.1906C55.9613 14.9333 55.8377 14.5797 55.8377 14.1298C55.8377 13.668 55.9527 13.305 56.1828 13.0408C56.4129 12.7767 56.729 12.6446 57.1312 12.6446C57.5044 12.6446 57.7992 12.7579 58.0156 12.9846C58.2321 13.2112 58.3403 13.5231 58.3403 13.9202V14.2448H56.4563C56.4648 14.5192 56.539 14.7305 56.6787 14.8788C56.8185 15.0253 57.0153 15.0986 57.2692 15.0986C57.4362 15.0986 57.5913 15.0833 57.7345 15.0526C57.8793 15.0202 58.0344 14.9674 58.1997 14.8941V15.3824C58.0531 15.4522 57.9049 15.5016 57.7549 15.5306C57.6049 15.5596 57.4337 15.5741 57.2411 15.5741ZM57.1312 13.0996C56.9403 13.0996 56.7869 13.1601 56.6711 13.2811C56.5569 13.4021 56.4887 13.5785 56.4666 13.8103H57.7498C57.7464 13.5768 57.6901 13.4004 57.5811 13.2811C57.472 13.1601 57.322 13.0996 57.1312 13.0996Z" fill="black"/>
</svg>
