<svg width="29" height="29" viewBox="0 0 29 29" fill="none" xmlns="http://www.w3.org/2000/svg">
<circle cx="14.5" cy="14.5" r="14.5" fill="#151723"/>
<path d="M14.4991 18.4375V18.4721M12.5312 12.0762C12.5312 10.9684 13.4127 10.0703 14.5 10.0703C15.5873 10.0703 16.4687 10.9684 16.4688 12.0762C16.4688 13.1841 15.5873 14.0822 14.5 14.0822C14.5 14.0822 14.4991 14.6809 14.4991 15.4195M22.375 14.5C22.375 18.8492 18.8492 22.375 14.5 22.375C10.1508 22.375 6.625 18.8492 6.625 14.5C6.625 10.1508 10.1508 6.625 14.5 6.625C18.8492 6.625 22.375 10.1508 22.375 14.5Z" stroke="#F4CFAB" stroke-width="2" stroke-linecap="round" stroke-linejoin="round"/>
</svg>
