<svg width="363" height="387" viewBox="0 0 363 387" fill="none" xmlns="http://www.w3.org/2000/svg">
<g filter="url(#filter0_f_263_622)">
<path fill-rule="evenodd" clip-rule="evenodd" d="M515.115 -387.84C564.418 -382.877 619.334 -406.52 661.012 -379.719C702.661 -352.937 708.246 -295.441 728.835 -250.409C747.488 -209.608 765.396 -170.472 776.545 -127.017C790.739 -71.6966 838.533 -5.55399 803.159 39.2851C765.494 87.0284 681.66 40.7892 625.59 64.3306C579.85 83.5347 562.527 145.628 515.115 160.223C463.654 176.064 406.93 166.909 356.883 147.048C302.796 125.583 235.617 99.343 220.266 43.2136C204.069 -16.0093 279.94 -65.6519 281.93 -127.017C283.817 -185.202 217.3 -234.436 231.103 -290.992C244.749 -346.905 296.74 -392.327 351.214 -410.903C404.338 -429.018 459.269 -393.461 515.115 -387.84Z" fill="url(#paint0_linear_263_622)"/>
</g>
<defs>
<filter id="filter0_f_263_622" x="0" y="-634" width="1033.94" height="1020.28" filterUnits="userSpaceOnUse" color-interpolation-filters="sRGB">
<feFlood flood-opacity="0" result="BackgroundImageFix"/>
<feBlend mode="normal" in="SourceGraphic" in2="BackgroundImageFix" result="shape"/>
<feGaussianBlur stdDeviation="109" result="effect1_foregroundBlur_263_622"/>
</filter>
<linearGradient id="paint0_linear_263_622" x1="-49.5808" y1="-120.861" x2="506.88" y2="448.603" gradientUnits="userSpaceOnUse">
<stop stop-color="#212D5D"/>
<stop offset="1" stop-color="#B7BAC9"/>
</linearGradient>
</defs>
</svg>
