<svg width="223" height="149" viewBox="0 0 223 149" fill="none" xmlns="http://www.w3.org/2000/svg">
<path fill-rule="evenodd" clip-rule="evenodd" d="M61.7599 56.0883H35.4679C32.5198 56.0883 30.13 58.4835 30.13 61.4383C30.13 64.3931 32.5198 66.7882 35.4679 66.7882H48.873L27.2942 88.4157C25.2092 90.5046 25.2092 93.8921 27.2942 95.9816C29.3787 98.0708 32.7585 98.0708 34.843 95.9816L56.4219 74.3543V87.7891C56.4219 90.7439 58.8118 93.1392 61.7599 93.1392C64.7081 93.1392 67.0979 90.7439 67.0979 87.7891V61.4383C67.0979 58.4835 64.7081 56.0883 61.7599 56.0883Z" fill="#CCCCCC"/>
<path fill-rule="evenodd" clip-rule="evenodd" d="M77.1252 92.9116H103.417C106.365 92.9116 108.755 90.5164 108.755 87.5617C108.755 84.6069 106.365 82.2116 103.417 82.2116H90.0122L111.591 60.5844C113.676 58.4952 113.676 55.1078 111.591 53.0186C109.506 50.929 106.127 50.929 104.042 53.0186L82.4631 74.6459V61.2107C82.4631 58.2559 80.0733 55.8608 77.1252 55.8608C74.177 55.8608 71.7871 58.2559 71.7871 61.2107V87.5617C71.7871 90.5164 74.177 92.9116 77.1252 92.9116Z" fill="#B6B6B6"/>
<path fill-rule="evenodd" clip-rule="evenodd" d="M132.222 69.3133C135.228 69.3133 136.359 66.7217 136.359 64.1518C136.359 61.4522 135.228 58.8606 132.222 58.8606C129.216 58.8606 128.086 61.4521 128.086 64.1518C128.086 66.7216 129.216 69.3133 132.222 69.3133ZM132.222 56.01C136.934 56.01 139.706 59.5733 139.706 64.1518C139.706 68.6005 136.934 72.1639 132.222 72.1639C127.511 72.1639 124.739 68.6005 124.739 64.1518C124.739 59.5733 127.511 56.01 132.222 56.01ZM140.857 60.9297H143.657V63.0158H143.699C144.238 61.6034 145.69 60.6254 147.121 60.6254C147.329 60.6254 147.578 60.6691 147.764 60.7343V63.6024C147.495 63.5372 147.059 63.4939 146.706 63.4939C144.549 63.4939 143.802 65.1234 143.802 67.101V72.1639H140.857V60.9297ZM156.774 66.511C156.226 66.9556 155.083 66.9769 154.078 67.1462C153.073 67.3366 152.16 67.6543 152.16 68.7553C152.16 69.8774 153.096 70.1526 154.147 70.1526C156.682 70.1526 156.774 68.2895 156.774 67.6333V66.511ZM149.281 64.2882C149.464 61.4724 152.183 60.6254 154.832 60.6254C157.185 60.6254 160.017 61.1122 160.017 63.7375V69.4329C160.017 70.4278 160.131 71.4226 160.428 71.8674H157.139C157.025 71.5287 156.934 71.1688 156.911 70.809C155.883 71.8039 154.375 72.1639 152.936 72.1639C150.698 72.1639 148.916 71.1265 148.916 68.8823C148.916 66.4052 150.926 65.8124 152.936 65.5582C154.923 65.283 156.774 65.3466 156.774 64.1185C156.774 62.8273 155.814 62.6367 154.672 62.6367C153.439 62.6367 152.64 63.1025 152.525 64.2882H149.281ZM161.58 60.9297H164.464V62.4943H164.528C165.297 61.2339 166.622 60.6254 167.903 60.6254C171.129 60.6254 171.941 62.4725 171.941 65.2539V72.1639H168.907V65.819C168.907 63.9719 168.373 63.0592 166.963 63.0592C165.318 63.0592 164.613 63.9938 164.613 66.2752V72.1639H161.58L161.58 60.9297ZM181.575 66.5361C181.575 64.6696 180.924 63.003 178.86 63.003C177.064 63.003 176.279 64.5586 176.279 66.2693C176.279 67.9135 176.908 69.7134 178.86 69.7134C180.678 69.7134 181.575 68.1801 181.575 66.5361ZM184.605 71.6909C184.605 73.5796 183.931 76.7792 178.59 76.7792C176.302 76.7792 173.631 75.7125 173.474 73.0907H176.638C176.93 74.2682 177.895 74.6684 179.017 74.6684C180.79 74.6684 181.598 73.4685 181.575 71.8242V70.3134H181.53C180.835 71.5132 179.443 72.0912 178.052 72.0912C174.573 72.0912 173.092 69.469 173.092 66.3139C173.092 63.3362 174.82 60.6255 178.074 60.6255C179.6 60.6255 180.767 61.1367 181.53 62.4699H181.575V60.9365H184.605V71.6909ZM194.082 65.2195C193.792 63.6951 193.1 62.8909 191.559 62.8909C189.551 62.8909 188.97 64.3727 188.926 65.2195H194.082ZM188.926 67.1249C189.015 69.0304 189.997 69.8984 191.76 69.8984C193.033 69.8984 194.06 69.1572 194.26 68.4797H197.051C196.158 71.063 194.26 72.1639 191.649 72.1639C188.011 72.1639 185.756 69.7927 185.756 66.405C185.756 63.1237 188.145 60.6254 191.649 60.6254C195.577 60.6254 197.475 63.7585 197.251 67.125L188.926 67.1249ZM132.301 87.8881H132.346L135.894 76.7792H140.857V92.9331H137.556V81.485H137.511L133.581 92.9331H130.864L126.934 81.598H126.889V92.9331H123.588V76.7792H128.551L132.301 87.8881ZM148.905 90.6677C150.992 90.6677 151.616 88.9104 151.616 87.1744C151.616 85.417 150.992 83.66 148.905 83.66C146.839 83.66 146.215 85.417 146.215 87.1744C146.215 88.9104 146.839 90.6677 148.905 90.6677ZM148.905 81.3946C152.412 81.3946 154.672 83.6813 154.672 87.1744C154.672 90.6464 152.412 92.9331 148.905 92.9331C145.419 92.9331 143.159 90.6464 143.159 87.1744C143.159 83.6813 145.419 81.3946 148.905 81.3946ZM155.823 81.6989H158.707V83.2635H158.772C159.541 82.0035 160.865 81.3946 162.147 81.3946C165.373 81.3946 166.185 83.2417 166.185 86.0233V92.9331H163.151V86.5881C163.151 84.7411 162.617 83.8287 161.207 83.8287C159.562 83.8287 158.857 84.7629 158.857 87.0444V92.9331H155.823L155.823 81.6989ZM175.662 85.9889C175.372 84.4644 174.68 83.66 173.139 83.66C171.131 83.66 170.55 85.1422 170.506 85.9889H175.662ZM170.506 87.8944C170.595 89.7994 171.577 90.6677 173.34 90.6677C174.612 90.6677 175.639 89.9265 175.84 89.2491H178.631C177.738 91.8319 175.84 92.9331 173.229 92.9331C169.59 92.9331 167.336 90.5616 167.336 87.1741C167.336 83.8932 169.724 81.3946 173.229 81.3946C177.157 81.3946 179.054 84.528 178.831 87.8942L170.506 87.8944ZM185.678 93.8837C185.006 95.6646 183.944 96.3946 181.819 96.3946C181.19 96.3946 180.561 96.3515 179.933 96.2871V93.7764C180.518 93.8194 181.125 93.9053 181.732 93.8837C182.794 93.7764 183.141 92.6821 182.794 91.8023L178.849 81.3946H182.144L184.681 88.9912H184.724L187.174 81.3946H190.361L185.678 93.8837Z" fill="#CCCCCC"/>
</svg>
